<?xml version="1.0" encoding="UTF-8" standalone="no"?>
<!DOCTYPE svg PUBLIC "-//W3C//DTD SVG 1.1//EN"
 "http://www.w3.org/Graphics/SVG/1.1/DTD/svg11.dtd">
<!-- Generated by graphviz version 2.47.0 (20210316.0004)
 -->
<!-- Title: dependencies Pages: 1 -->
<svg width="1064pt" height="211pt"
 viewBox="0.00 0.00 1064.00 211.00" xmlns="http://www.w3.org/2000/svg" xmlns:xlink="http://www.w3.org/1999/xlink">
<g id="graph0" class="graph" transform="scale(1 1) rotate(0) translate(4 207)">
<title>dependencies</title>
<polygon fill="white" stroke="transparent" points="-4,4 -4,-207 1060,-207 1060,4 -4,4"/>
<text text-anchor="start" x="507.01" y="-42.4" font-family="Times-12" font-weight="bold" font-size="14.00">Legend</text>
<polygon fill="#ffffb3" stroke="transparent" points="294,-10 294,-30 314,-30 314,-10 294,-10"/>
<text text-anchor="start" x="317.63" y="-15.4" font-family="Times-12" font-size="14.00"> &#160;Declarations</text>
<polygon fill="#8dd3c7" stroke="transparent" points="407,-10 407,-30 427,-30 427,-10 407,-10"/>
<text text-anchor="start" x="430.73" y="-15.4" font-family="Times-12" font-size="14.00"> &#160;Module</text>
<polygon fill="#80b1d3" stroke="transparent" points="493,-10 493,-30 513,-30 513,-10 493,-10"/>
<text text-anchor="start" x="516.78" y="-15.4" font-family="Times-12" font-size="14.00"> &#160;Bootstrap</text>
<polygon fill="#fdb462" stroke="transparent" points="590,-10 590,-30 610,-30 610,-10 590,-10"/>
<text text-anchor="start" x="613.67" y="-15.4" font-family="Times-12" font-size="14.00"> &#160;Providers</text>
<polygon fill="#fb8072" stroke="transparent" points="686,-10 686,-30 706,-30 706,-10 686,-10"/>
<text text-anchor="start" x="709.73" y="-15.4" font-family="Times-12" font-size="14.00"> &#160;Exports</text>
<g id="clust1" class="cluster">
<title>cluster_AppModule</title>
<polygon fill="none" stroke="black" stroke-dasharray="1,5" points="8,-70 8,-195 1048,-195 1048,-70 8,-70"/>
</g>
<g id="clust3" class="cluster">
<title>cluster_AppModule_imports</title>
<polygon fill="none" stroke="black" points="154,-78 154,-130 1040,-130 1040,-78 154,-78"/>
</g>
<g id="clust6" class="cluster">
<title>cluster_AppModule_providers</title>
<polygon fill="none" stroke="black" points="16,-78 16,-130 146,-130 146,-78 16,-78"/>
</g>
<!-- AuthModule -->
<g id="node1" class="node">
<title>AuthModule</title>
<polygon fill="#8dd3c7" stroke="black" points="1031.55,-122 1028.55,-126 1007.55,-126 1004.55,-122 944.45,-122 944.45,-86 1031.55,-86 1031.55,-122"/>
<text text-anchor="middle" x="988" y="-99.8" font-family="Times,serif" font-size="14.00">AuthModule</text>
</g>
<!-- AppModule -->
<g id="node8" class="node">
<title>AppModule</title>
<polygon fill="#8dd3c7" stroke="black" points="557.66,-187 554.66,-191 533.66,-191 530.66,-187 474.34,-187 474.34,-151 557.66,-151 557.66,-187"/>
<text text-anchor="middle" x="516" y="-164.8" font-family="Times,serif" font-size="14.00">AppModule</text>
</g>
<!-- AuthModule&#45;&gt;AppModule -->
<g id="edge1" class="edge">
<title>AuthModule&#45;&gt;AppModule</title>
<path fill="none" stroke="black" d="M988,-122.29C988,-144.21 988,-178 988,-178 988,-178 567.89,-178 567.89,-178"/>
<polygon fill="black" stroke="black" points="567.89,-174.5 557.89,-178 567.89,-181.5 567.89,-174.5"/>
</g>
<!-- DatabaseModule -->
<g id="node2" class="node">
<title>DatabaseModule</title>
<polygon fill="#8dd3c7" stroke="black" points="926.35,-122 923.35,-126 902.35,-126 899.35,-122 815.65,-122 815.65,-86 926.35,-86 926.35,-122"/>
<text text-anchor="middle" x="871" y="-99.8" font-family="Times,serif" font-size="14.00">DatabaseModule</text>
</g>
<!-- DatabaseModule&#45;&gt;AppModule -->
<g id="edge2" class="edge">
<title>DatabaseModule&#45;&gt;AppModule</title>
<path fill="none" stroke="black" d="M871,-122.11C871,-141.34 871,-169 871,-169 871,-169 567.77,-169 567.77,-169"/>
<polygon fill="black" stroke="black" points="567.77,-165.5 557.77,-169 567.77,-172.5 567.77,-165.5"/>
</g>
<!-- MiddlewaresModule -->
<g id="node3" class="node">
<title>MiddlewaresModule</title>
<polygon fill="#8dd3c7" stroke="black" points="797.13,-122 794.13,-126 773.13,-126 770.13,-122 664.87,-122 664.87,-86 797.13,-86 797.13,-122"/>
<text text-anchor="middle" x="731" y="-99.8" font-family="Times,serif" font-size="14.00">MiddlewaresModule</text>
</g>
<!-- MiddlewaresModule&#45;&gt;AppModule -->
<g id="edge3" class="edge">
<title>MiddlewaresModule&#45;&gt;AppModule</title>
<path fill="none" stroke="black" d="M731,-122.03C731,-138.4 731,-160 731,-160 731,-160 567.71,-160 567.71,-160"/>
<polygon fill="black" stroke="black" points="567.71,-156.5 557.71,-160 567.71,-163.5 567.71,-156.5"/>
</g>
<!-- TransactionsModule -->
<g id="node4" class="node">
<title>TransactionsModule</title>
<polygon fill="#8dd3c7" stroke="black" points="646.58,-122 643.58,-126 622.58,-126 619.58,-122 515.42,-122 515.42,-86 646.58,-86 646.58,-122"/>
<text text-anchor="middle" x="581" y="-99.8" font-family="Times,serif" font-size="14.00">TransactionsModule</text>
</g>
<!-- TransactionsModule&#45;&gt;AppModule -->
<g id="edge4" class="edge">
<title>TransactionsModule&#45;&gt;AppModule</title>
<path fill="none" stroke="black" d="M536.64,-122.11C536.64,-122.11 536.64,-140.99 536.64,-140.99"/>
<polygon fill="black" stroke="black" points="533.14,-140.99 536.64,-150.99 540.14,-140.99 533.14,-140.99"/>
</g>
<!-- UsersModule -->
<g id="node5" class="node">
<title>UsersModule</title>
<polygon fill="#8dd3c7" stroke="black" points="497.92,-122 494.92,-126 473.92,-126 470.92,-122 406.08,-122 406.08,-86 497.92,-86 497.92,-122"/>
<text text-anchor="middle" x="452" y="-99.8" font-family="Times,serif" font-size="14.00">UsersModule</text>
</g>
<!-- UsersModule&#45;&gt;AppModule -->
<g id="edge5" class="edge">
<title>UsersModule&#45;&gt;AppModule</title>
<path fill="none" stroke="black" d="M485.94,-122.11C485.94,-122.11 485.94,-140.99 485.94,-140.99"/>
<polygon fill="black" stroke="black" points="482.44,-140.99 485.94,-150.99 489.44,-140.99 482.44,-140.99"/>
</g>
<!-- UtilityModule -->
<g id="node6" class="node">
<title>UtilityModule</title>
<polygon fill="#8dd3c7" stroke="black" points="388.11,-122 385.11,-126 364.11,-126 361.11,-122 291.89,-122 291.89,-86 388.11,-86 388.11,-122"/>
<text text-anchor="middle" x="340" y="-99.8" font-family="Times,serif" font-size="14.00">UtilityModule</text>
</g>
<!-- UtilityModule&#45;&gt;AppModule -->
<g id="edge6" class="edge">
<title>UtilityModule&#45;&gt;AppModule</title>
<path fill="none" stroke="black" d="M340,-122.03C340,-138.4 340,-160 340,-160 340,-160 464.29,-160 464.29,-160"/>
<polygon fill="black" stroke="black" points="464.29,-163.5 474.29,-160 464.29,-156.5 464.29,-163.5"/>
</g>
<!-- VertupayModule -->
<g id="node7" class="node">
<title>VertupayModule</title>
<polygon fill="#8dd3c7" stroke="black" points="273.64,-122 270.64,-126 249.64,-126 246.64,-122 162.36,-122 162.36,-86 273.64,-86 273.64,-122"/>
<text text-anchor="middle" x="218" y="-99.8" font-family="Times,serif" font-size="14.00">VertupayModule</text>
</g>
<!-- VertupayModule&#45;&gt;AppModule -->
<g id="edge7" class="edge">
<title>VertupayModule&#45;&gt;AppModule</title>
<path fill="none" stroke="black" d="M218,-122.11C218,-141.34 218,-169 218,-169 218,-169 464.25,-169 464.25,-169"/>
<polygon fill="black" stroke="black" points="464.25,-172.5 474.25,-169 464.25,-165.5 464.25,-172.5"/>
</g>
<!-- AppService -->
<g id="node9" class="node">
<title>AppService</title>
<ellipse fill="#fdb462" stroke="black" cx="81" cy="-104" rx="56.74" ry="18"/>
<text text-anchor="middle" x="81" y="-99.8" font-family="Times,serif" font-size="14.00">AppService</text>
</g>
<!-- AppService&#45;&gt;AppModule -->
<g id="edge8" class="edge">
<title>AppService&#45;&gt;AppModule</title>
<path fill="none" stroke="black" d="M81,-122.29C81,-144.21 81,-178 81,-178 81,-178 464.29,-178 464.29,-178"/>
<polygon fill="black" stroke="black" points="464.29,-181.5 474.29,-178 464.29,-174.5 464.29,-181.5"/>
</g>
</g>
</svg>
