<?xml version="1.0" encoding="UTF-8" standalone="no"?>
<!DOCTYPE svg PUBLIC "-//W3C//DTD SVG 1.1//EN"
 "http://www.w3.org/Graphics/SVG/1.1/DTD/svg11.dtd">
<!-- Generated by graphviz version 2.47.0 (20210316.0004)
 -->
<!-- Title: dependencies Pages: 1 -->
<svg width="632pt" height="211pt"
 viewBox="0.00 0.00 632.00 211.00" xmlns="http://www.w3.org/2000/svg" xmlns:xlink="http://www.w3.org/1999/xlink">
<g id="graph0" class="graph" transform="scale(1 1) rotate(0) translate(4 207)">
<title>dependencies</title>
<polygon fill="white" stroke="transparent" points="-4,4 -4,-207 628,-207 628,4 -4,4"/>
<text text-anchor="start" x="291.01" y="-42.4" font-family="Times-12" font-weight="bold" font-size="14.00">Legend</text>
<polygon fill="#ffffb3" stroke="transparent" points="78,-10 78,-30 98,-30 98,-10 78,-10"/>
<text text-anchor="start" x="101.63" y="-15.4" font-family="Times-12" font-size="14.00"> &#160;Declarations</text>
<polygon fill="#8dd3c7" stroke="transparent" points="191,-10 191,-30 211,-30 211,-10 191,-10"/>
<text text-anchor="start" x="214.73" y="-15.4" font-family="Times-12" font-size="14.00"> &#160;Module</text>
<polygon fill="#80b1d3" stroke="transparent" points="277,-10 277,-30 297,-30 297,-10 277,-10"/>
<text text-anchor="start" x="300.78" y="-15.4" font-family="Times-12" font-size="14.00"> &#160;Bootstrap</text>
<polygon fill="#fdb462" stroke="transparent" points="374,-10 374,-30 394,-30 394,-10 374,-10"/>
<text text-anchor="start" x="397.67" y="-15.4" font-family="Times-12" font-size="14.00"> &#160;Providers</text>
<polygon fill="#fb8072" stroke="transparent" points="470,-10 470,-30 490,-30 490,-10 470,-10"/>
<text text-anchor="start" x="493.73" y="-15.4" font-family="Times-12" font-size="14.00"> &#160;Exports</text>
<g id="clust1" class="cluster">
<title>cluster_VertupayModule</title>
<polygon fill="none" stroke="black" stroke-dasharray="1,5" points="8,-70 8,-195 616,-195 616,-70 8,-70"/>
</g>
<g id="clust6" class="cluster">
<title>cluster_VertupayModule_providers</title>
<polygon fill="none" stroke="black" points="16,-78 16,-130 608,-130 608,-78 16,-78"/>
</g>
<!-- VertupayAccountFactory -->
<g id="node1" class="node">
<title>VertupayAccountFactory</title>
<ellipse fill="#fdb462" stroke="black" cx="491" cy="-104" rx="109.35" ry="18"/>
<text text-anchor="middle" x="491" y="-99.8" font-family="Times,serif" font-size="14.00">VertupayAccountFactory</text>
</g>
<!-- VertupayModule -->
<g id="node4" class="node">
<title>VertupayModule</title>
<polygon fill="#8dd3c7" stroke="black" points="334.64,-187 331.64,-191 310.64,-191 307.64,-187 223.36,-187 223.36,-151 334.64,-151 334.64,-187"/>
<text text-anchor="middle" x="279" y="-164.8" font-family="Times,serif" font-size="14.00">VertupayModule</text>
</g>
<!-- VertupayAccountFactory&#45;&gt;VertupayModule -->
<g id="edge1" class="edge">
<title>VertupayAccountFactory&#45;&gt;VertupayModule</title>
<path fill="none" stroke="black" d="M491,-122.11C491,-141.34 491,-169 491,-169 491,-169 344.7,-169 344.7,-169"/>
<polygon fill="black" stroke="black" points="344.7,-165.5 334.7,-169 344.7,-172.5 344.7,-165.5"/>
</g>
<!-- VertupayApiClient -->
<g id="node2" class="node">
<title>VertupayApiClient</title>
<ellipse fill="#fdb462" stroke="black" cx="279" cy="-104" rx="85.11" ry="18"/>
<text text-anchor="middle" x="279" y="-99.8" font-family="Times,serif" font-size="14.00">VertupayApiClient</text>
</g>
<!-- VertupayApiClient&#45;&gt;VertupayModule -->
<g id="edge2" class="edge">
<title>VertupayApiClient&#45;&gt;VertupayModule</title>
<path fill="none" stroke="black" d="M279,-122.11C279,-122.11 279,-140.99 279,-140.99"/>
<polygon fill="black" stroke="black" points="275.5,-140.99 279,-150.99 282.5,-140.99 275.5,-140.99"/>
</g>
<!-- VertupayService -->
<g id="node3" class="node">
<title>VertupayService</title>
<ellipse fill="#fdb462" stroke="black" cx="100" cy="-104" rx="75.84" ry="18"/>
<text text-anchor="middle" x="100" y="-99.8" font-family="Times,serif" font-size="14.00">VertupayService</text>
</g>
<!-- VertupayService&#45;&gt;VertupayModule -->
<g id="edge3" class="edge">
<title>VertupayService&#45;&gt;VertupayModule</title>
<path fill="none" stroke="black" d="M100,-122.11C100,-141.34 100,-169 100,-169 100,-169 213.34,-169 213.34,-169"/>
<polygon fill="black" stroke="black" points="213.34,-172.5 223.34,-169 213.34,-165.5 213.34,-172.5"/>
</g>
</g>
</svg>
